<?xml version="1.0" encoding="utf-8"?>
<!-- Generator: Adobe Illustrator 23.1.0, SVG Export Plug-In . SVG Version: 6.00 Build 0)  -->
<svg version="1.1" id="Layer_1" xmlns="http://www.w3.org/2000/svg" xmlns:xlink="http://www.w3.org/1999/xlink" x="0px" y="0px"
	 viewBox="0 0 1080 1080" style="enable-background:new 0 0 1080 1080;" xml:space="preserve">
<style type="text/css">
	.st0{fill:none;}
	.st1{fill:#FFFFFF;}
	.st2{fill:#E82127;}
	.st3{fill:#001F4C;}
</style>
<rect class="st0" width="1080" height="1080"/>
<g>
	<g>
		<path class="st2" d="M306.36,562.89c0,5.44-1.94,10.42-5.17,14.31l-0.02,0.02c-0.87,0.89-1.75,1.78-2.63,2.68c0,0,0,0-0.01,0
			c-4.23,4.29-8.46,8.58-12.7,12.86c-1.91,1.92-3.82,3.84-5.73,5.75c-0.97,0.97-2.55,1.87-3.86,1.87
			c-23.01,0.11-69.37,0.07-70.32,0.08c2.5-2.54,4.97-5.11,7.43-7.71c20.94-22.06,40.83-45.84,62-67.58
			c0.95-0.98,2.52-1.01,3.48-0.04c0.01,0.01,0.01,0.01,0.02,0.02c6.16,6.25,12.97,13.59,19.62,20.66c1.14,1.22,2.28,2.43,3.41,3.63
			C304.7,553.21,306.36,557.86,306.36,562.89z"/>
		<path class="st2" d="M294.64,477.1c-20.12,21.59-51.69,57.93-74.72,82.36c-4.11,4.36-10.75,4.23-14.69-0.27
			c-3.49-3.98-6.98-7.96-10.46-11.92c-0.06-0.07-0.13-0.14-0.19-0.21c-0.99-1.13-1.98-2.25-2.97-3.37c-2.58-3.61-4.1-8.03-4.1-12.8
			c0-6.44,2.77-12.24,7.18-16.27c0.01-0.01,0.02-0.02,0.04-0.03c0.28-0.25,0.56-0.49,0.85-0.73c0.01-0.01,0.01-0.01,0.02-0.02
			c12.86-11.11,30.44-25.48,38.66-33.21c0.11-0.11,0.22-0.2,0.33-0.3c0.01-0.01,0.02-0.01,0.03-0.02c0.02-0.02,0.05-0.04,0.08-0.06
			c0-0.01,0.01-0.01,0.01-0.01c0.13-0.11,0.25-0.21,0.38-0.31c0.04-0.04,0.1-0.08,0.14-0.12c0,0,0.01,0,0.01-0.01
			c1.9-1.47,4.22-2.42,6.75-2.63c0.04,0,0.07,0,0.11-0.01c0.28-0.02,0.57-0.03,0.86-0.03h0.18
			C262.58,477.11,293.24,477.12,294.64,477.1z"/>
		<path class="st2" d="M320.76,602.82H182.78l0,0c0-5.55,4.62-10.06,10.32-10.06h117.35C316.14,592.76,320.76,597.26,320.76,602.82
			L320.76,602.82z"/>
		<path class="st2" d="M321.45,478.53C321.45,478.53,321.45,478.53,321.45,478.53c0,0.09-0.03,0.31-0.03,0.31l-0.53,5.01
			c-0.19,1.86-1.24,3.51-2.83,4.48l-20.35,12.43l0.45-23.66h21.96c0,0,0.01,0,0.01,0C320.86,477.17,321.45,477.78,321.45,478.53z"/>
	</g>
	<g>
		<g>
			<path class="st3" d="M359.45,602.95h-4.96l15.21-27.59c0.78-1.42,2.18-2.25,3.81-2.25c1.63,0,3.02,0.82,3.81,2.25l15.21,27.59
				h-4.96l-3.51-6.37h-21.08L359.45,602.95z M365.36,592.23h16.28l-8.14-14.77L365.36,592.23z"/>
			<path class="st3" d="M449.02,573.12v18.84c0,6.05-4.95,10.99-10.99,10.99h-11.37c-6.04,0-10.99-4.95-10.99-10.99v-18.84h4.35
				v18.84c0,3.66,2.99,6.65,6.65,6.65h11.37c3.66,0,6.65-2.99,6.65-6.65v-18.84H449.02z"/>
			<path class="st3" d="M488.17,577.46h-14.02v-4.35h32.4v4.35h-14.02v25.49h-4.35V577.46z"/>
			<path class="st3" d="M541.68,573.12h11.37c6.04,0,10.99,4.95,10.99,10.99v7.85c0,6.05-4.95,10.99-10.99,10.99h-11.37
				c-6.04,0-10.99-4.95-10.99-10.99v-7.85C530.69,578.07,535.64,573.12,541.68,573.12z M553.05,577.46h-11.37
				c-3.66,0-6.65,2.99-6.65,6.65v7.85c0,3.66,2.99,6.65,6.65,6.65h11.37c3.66,0,6.65-2.99,6.65-6.65v-7.85
				C559.7,580.45,556.71,577.46,553.05,577.46z"/>
			<path class="st3" d="M622.64,575.75c1.07-1.55,2.79-2.52,4.67-2.63c0.11-0.01,0.23-0.01,0.34-0.01c0.46,0,0.91,0.05,1.36,0.15
				c2.65,0.6,4.58,2.89,4.72,5.6l0,0.03l0,0.03c0.02,0.19,0.03,0.38,0.03,0.57v23.32h-4.35V579.5c0-0.1-0.01-0.19-0.02-0.29
				c0-0.81-0.56-1.52-1.36-1.7c-0.13-0.03-0.26-0.04-0.39-0.04c-0.52,0-1.01,0.23-1.34,0.63l-0.12,0.15l-8.85,19.44
				c-0.62,1.37-1.6,3.8-2.89,4.64c-0.6,0.39-1.29,0.51-1.99,0.51c-0.7,0-1.39-0.11-1.99-0.51c-1.29-0.84-2.27-3.27-2.89-4.64
				l-8.85-19.44l-0.12-0.15c-0.33-0.4-0.82-0.63-1.34-0.63c-0.13,0-0.26,0.01-0.39,0.04c-0.79,0.18-1.35,0.89-1.35,1.7
				c-0.01,0.1-0.02,0.19-0.02,0.29v23.32h-4.35V579.5c0-0.19,0.01-0.38,0.03-0.57l0-0.03l0-0.03c0.15-2.71,2.08-5,4.73-5.6
				c0.44-0.1,0.9-0.15,1.36-0.15c0.11,0,0.23,0,0.34,0.01c1.88,0.1,3.6,1.07,4.67,2.63l0.27,0.39l9.91,21.76l9.91-21.76
				L622.64,575.75z"/>
			<path class="st3" d="M662.87,602.95h-4.96l15.21-27.59c0.78-1.42,2.18-2.25,3.81-2.25c1.63,0,3.02,0.82,3.81,2.25l15.21,27.59
				h-4.96l-3.51-6.37h-21.08L662.87,602.95z M668.78,592.23h16.28l-8.14-14.77L668.78,592.23z"/>
			<path class="st3" d="M727.13,577.46h-14.02v-4.35h32.4v4.35h-14.02v25.49h-4.35V577.46z"/>
			<path class="st3" d="M774,573.12v29.83h-4.35v-29.83H774z"/>
			<path class="st3" d="M812.08,573.12h11.37c6.04,0,10.99,4.95,10.99,10.99v7.85c0,6.05-4.95,10.99-10.99,10.99h-11.37
				c-6.04,0-10.99-4.95-10.99-10.99v-7.85C801.08,578.07,806.03,573.12,812.08,573.12z M823.45,577.46h-11.37
				c-3.66,0-6.65,2.99-6.65,6.65v7.85c0,3.66,2.99,6.65,6.65,6.65h11.37c3.66,0,6.65-2.99,6.65-6.65v-7.85
				C830.09,580.45,827.1,577.46,823.45,577.46z"/>
			<path class="st3" d="M860.56,578.53c0-2.99,2.43-5.41,5.41-5.41h1.74c1.19,0,2.36,0.3,3.4,0.86c1.46,0.79,2.36,1.87,3.14,3.32
				c0.15,0.28,0.29,0.57,0.43,0.86c0.12,0.24,0.23,0.49,0.34,0.74c0.09,0.2,0.18,0.4,0.27,0.59l6.91,15.31
				c0.09,0.2,0.18,0.41,0.27,0.61c0.1,0.22,0.19,0.43,0.29,0.64c0.11,0.22,0.21,0.44,0.33,0.66c0.36,0.66,0.69,1.19,1.38,1.56
				c0.41,0.22,0.87,0.34,1.33,0.34h0.64c1.19,0,2.16-0.97,2.16-2.16v-23.32h4.35v24.42c0,2.99-2.43,5.41-5.41,5.41h-1.74
				c-1.19,0-2.36-0.3-3.4-0.86c-1.46-0.79-2.36-1.87-3.14-3.32c-0.15-0.28-0.3-0.57-0.43-0.86c-0.12-0.24-0.23-0.49-0.34-0.74
				c-0.09-0.2-0.18-0.4-0.27-0.6l-6.91-15.31c-0.09-0.2-0.18-0.41-0.27-0.61c-0.1-0.22-0.19-0.43-0.29-0.64
				c-0.1-0.22-0.21-0.44-0.33-0.66c-0.36-0.66-0.69-1.19-1.38-1.56c-0.41-0.22-0.87-0.34-1.33-0.34h-0.64
				c-1.19,0-2.16,0.97-2.16,2.16v23.32h-4.35V578.53z"/>
		</g>
		<g>
			<path class="st3" d="M368.56,518.1c-8.43-2.99-14.07-10.97-14.07-19.92c0-11.66,9.47-21.13,21.13-21.13h59.91v17.51h-59.91
				c-2,0-3.62,1.62-3.62,3.62c0,1.52,0.95,2.88,2.37,3.4l51.15,13.71l0.61,0.22c8.43,2.99,14.07,10.97,14.07,19.92
				c0,11.66-9.47,21.13-21.13,21.13h-59.91v-17.51h59.91c2,0,3.62-1.62,3.62-3.62c0-1.52-0.95-2.88-2.37-3.4l-51.15-13.71
				L368.56,518.1z"/>
			<path class="st3" d="M468.17,477.05l21.36,25.96l21.36-25.96h22.68l-35.28,42.88v36.6h-17.51v-36.6l-35.28-42.88H468.17z"/>
			<path class="st3" d="M555.52,477.05h4.22c3.46,0,6.87,0.86,9.92,2.51c4.17,2.25,6.82,5.36,9.04,9.48
				c0.4,0.74,0.77,1.49,1.13,2.24c0.29,0.62,0.58,1.24,0.85,1.87c0.21,0.48,0.42,0.96,0.64,1.43l16.79,37.23
				c0.23,0.5,0.45,1,0.67,1.5c0.22,0.5,0.45,0.99,0.68,1.49c0.23,0.48,0.47,0.96,0.72,1.43c0.51,0.94,0.98,1.86,1.96,2.39
				c0.49,0.26,1.03,0.4,1.59,0.4h1.55c0.98,0,1.79-0.81,1.79-1.79v-60.18h17.51v62.85c0,9.18-7.45,16.63-16.63,16.63h-4.22
				c-3.46,0-6.87-0.86-9.92-2.51c-4.17-2.25-6.82-5.36-9.04-9.48c-0.4-0.74-0.77-1.48-1.13-2.24c-0.29-0.62-0.58-1.24-0.85-1.87
				c-0.21-0.48-0.42-0.96-0.64-1.43l-16.79-37.23c-0.23-0.5-0.45-1-0.67-1.5c-0.22-0.5-0.45-0.99-0.68-1.49
				c-0.23-0.48-0.47-0.96-0.72-1.43c-0.51-0.94-0.98-1.86-1.96-2.39c-0.49-0.26-1.03-0.4-1.59-0.4h-1.55
				c-0.98,0-1.79,0.81-1.79,1.79v60.18h-17.51v-62.85C538.88,484.5,546.34,477.05,555.52,477.05z"/>
			<path class="st3" d="M667.75,478.85c2.04-1.34,4.33-1.8,6.74-1.8s4.7,0.46,6.74,1.8c3.96,2.6,6.38,8.57,8.28,12.74l29.58,64.95
				h-19.24l-7.06-15.49h-36.59l-7.06,15.49h-19.24l29.58-64.95C661.37,487.42,663.79,481.45,667.75,478.85z M674.49,500.87
				l-10.32,22.66h20.64L674.49,500.87z"/>
			<path class="st3" d="M724.34,512.28v-18.59c0-9.19,7.46-16.59,16.63-16.63h0.14h40.15c2.76,0,5.49,0.47,8.08,1.39
				c9.63,3.43,15.7,12.61,16.16,22.86c0.65,14.38-5.73,22.44-14.42,26.32l12.45,23.43c0.23,0.5,0.45,1,0.67,1.5
				c0.22,0.5,0.45,0.99,0.68,1.49c0.16,0.34,0.33,0.68,0.5,1.02l0.76,1.47h-19.35l-13.98-26.82h-30.83v26.82h-17.51v-44.26H724.34z
				 M787.99,501.24c-0.08-3.68-3.06-6.67-6.74-6.67h-38.29c-0.41,0-0.79,0.23-0.98,0.59v17.05h39.27
				C789.18,512.2,788.05,504.25,787.99,501.24z"/>
			<path class="st3" d="M811.51,494.57v-17.51h85.72v17.51h-34.1v61.97h-17.51v-61.97H811.51z"/>
		</g>
	</g>
</g>
</svg>
