<?xml version="1.0" encoding="utf-8"?>
<!-- Generator: Adobe Illustrator 23.1.0, SVG Export Plug-In . SVG Version: 6.00 Build 0)  -->
<svg version="1.1" id="Layer_1" xmlns="http://www.w3.org/2000/svg" xmlns:xlink="http://www.w3.org/1999/xlink" x="0px" y="0px"
	 viewBox="0 0 714.45 125.9" style="enable-background:new 0 0 714.45 125.9;" xml:space="preserve">
<style type="text/css">
	.st0{fill:none;}
	.st1{fill:#FFFFFF;}
	.st2{fill:#E82127;}
	.st3{fill:#001F4C;}
</style>
<g>
	<g>
		<path class="st2" d="M11.81,70.01c0.06,0.07,0.13,0.14,0.19,0.21c3.49,3.97,6.98,7.95,10.46,11.92c3.94,4.5,10.58,4.63,14.69,0.27
			c23.03-24.43,54.6-60.77,74.72-82.36c-1.4,0.02-32.07,0-51.51,0h-0.18c-0.29,0-0.57,0.01-0.86,0.03c-0.04,0-0.07,0-0.11,0.01
			c-2.53,0.21-4.85,1.15-6.75,2.63c0,0,0,0-0.01,0.01c-0.04,0.04-0.1,0.08-0.14,0.12c-0.13,0.1-0.25,0.2-0.38,0.31
			c0,0-0.01,0-0.01,0.01c-0.02,0.02-0.05,0.04-0.08,0.06c-0.01,0.01-0.02,0.01-0.03,0.02c-0.11,0.1-0.22,0.2-0.33,0.3
			c-8.22,7.73-25.79,22.11-38.66,33.21c-0.01,0-0.01,0.01-0.02,0.02c-0.29,0.25-0.57,0.49-0.85,0.73c-0.01,0.01-0.02,0.02-0.04,0.03
			c-4.41,4.03-7.18,9.83-7.18,16.27c0,4.77,1.52,9.19,4.1,12.8C9.82,67.75,10.82,68.88,11.81,70.01z"/>
		<path class="st2" d="M127.67,115.71h-24.62c4.24-4.28,8.47-8.57,12.7-12.86c0,0,0,0,0.01,0c0.88-0.89,1.76-1.78,2.63-2.68
			l0.02-0.02c3.23-3.89,5.17-8.87,5.17-14.31c0-5.04-1.66-9.68-4.48-13.43c-1.13-1.2-2.27-2.41-3.41-3.63
			c-6.65-7.07-13.47-14.41-19.62-20.66c0-0.01-0.01-0.01-0.02-0.02c-0.96-0.97-2.52-0.94-3.48,0.04
			c-21.17,21.74-41.06,45.51-62,67.58H10.32c-5.7,0-10.32,4.5-10.32,10.06h137.99C137.99,120.21,133.37,115.71,127.67,115.71z"/>
		<path class="st2" d="M137.35,0.05C137.35,0.05,137.34,0.05,137.35,0.05h-21.97l-0.45,23.66l20.35-12.43
			c1.59-0.97,2.64-2.63,2.83-4.48l0.53-5.01c0,0,0.03-0.23,0.03-0.3c0,0,0,0,0-0.01C138.67,0.73,138.08,0.11,137.35,0.05z"/>
	</g>
	<g>
		<g>
			<path class="st3" d="M176.67,125.9h-4.96l15.21-27.59c0.78-1.42,2.18-2.25,3.81-2.25c1.63,0,3.02,0.82,3.81,2.25l15.21,27.59
				h-4.96l-3.51-6.37h-21.08L176.67,125.9z M182.58,115.18h16.28l-8.14-14.77L182.58,115.18z"/>
			<path class="st3" d="M266.24,96.07v18.84c0,6.05-4.95,10.99-10.99,10.99h-11.37c-6.04,0-10.99-4.95-10.99-10.99V96.07h4.35v18.84
				c0,3.66,2.99,6.65,6.65,6.65h11.37c3.66,0,6.65-2.99,6.65-6.65V96.07H266.24z"/>
			<path class="st3" d="M305.39,100.41h-14.02v-4.35h32.4v4.35h-14.02v25.49h-4.35V100.41z"/>
			<path class="st3" d="M358.9,96.07h11.37c6.04,0,10.99,4.95,10.99,10.99v7.85c0,6.05-4.95,10.99-10.99,10.99H358.9
				c-6.04,0-10.99-4.95-10.99-10.99v-7.85C347.91,101.01,352.86,96.07,358.9,96.07z M370.28,100.41H358.9
				c-3.66,0-6.65,2.99-6.65,6.65v7.85c0,3.66,2.99,6.65,6.65,6.65h11.37c3.66,0,6.65-2.99,6.65-6.65v-7.85
				C376.92,103.4,373.93,100.41,370.28,100.41z"/>
			<path class="st3" d="M439.87,98.7c1.07-1.55,2.79-2.52,4.67-2.63c0.11-0.01,0.23-0.01,0.34-0.01c0.46,0,0.91,0.05,1.36,0.15
				c2.65,0.6,4.58,2.89,4.72,5.6l0,0.03l0,0.03c0.02,0.19,0.03,0.38,0.03,0.57v23.32h-4.35v-23.32c0-0.1-0.01-0.19-0.02-0.29
				c0-0.81-0.56-1.52-1.36-1.7c-0.13-0.03-0.26-0.04-0.39-0.04c-0.52,0-1.01,0.23-1.34,0.63l-0.12,0.15l-8.85,19.44
				c-0.62,1.37-1.6,3.8-2.89,4.64c-0.6,0.39-1.29,0.51-1.99,0.51c-0.7,0-1.39-0.11-1.99-0.51c-1.29-0.84-2.27-3.27-2.89-4.64
				l-8.85-19.44l-0.12-0.15c-0.33-0.4-0.82-0.63-1.34-0.63c-0.13,0-0.26,0.01-0.39,0.04c-0.79,0.18-1.35,0.89-1.35,1.7
				c-0.01,0.1-0.02,0.19-0.02,0.29v23.32h-4.35v-23.32c0-0.19,0.01-0.38,0.03-0.57l0-0.03l0-0.03c0.15-2.71,2.08-5,4.73-5.6
				c0.44-0.1,0.9-0.15,1.36-0.15c0.11,0,0.23,0,0.34,0.01c1.88,0.1,3.6,1.07,4.67,2.63l0.27,0.39l9.91,21.76l9.91-21.76L439.87,98.7
				z"/>
			<path class="st3" d="M480.09,125.9h-4.96l15.21-27.59c0.78-1.42,2.18-2.25,3.81-2.25c1.63,0,3.02,0.82,3.81,2.25l15.21,27.59
				h-4.96l-3.51-6.37H483.6L480.09,125.9z M486,115.18h16.28l-8.14-14.77L486,115.18z"/>
			<path class="st3" d="M544.35,100.41h-14.02v-4.35h32.4v4.35H548.7v25.49h-4.35V100.41z"/>
			<path class="st3" d="M591.22,96.07v29.83h-4.35V96.07H591.22z"/>
			<path class="st3" d="M629.3,96.07h11.37c6.04,0,10.99,4.95,10.99,10.99v7.85c0,6.05-4.95,10.99-10.99,10.99H629.3
				c-6.04,0-10.99-4.95-10.99-10.99v-7.85C618.3,101.01,623.25,96.07,629.3,96.07z M640.67,100.41H629.3
				c-3.66,0-6.65,2.99-6.65,6.65v7.85c0,3.66,2.99,6.65,6.65,6.65h11.37c3.66,0,6.65-2.99,6.65-6.65v-7.85
				C647.32,103.4,644.33,100.41,640.67,100.41z"/>
			<path class="st3" d="M677.78,101.48c0-2.99,2.43-5.41,5.41-5.41h1.74c1.19,0,2.36,0.3,3.4,0.86c1.46,0.79,2.36,1.87,3.14,3.32
				c0.15,0.28,0.29,0.57,0.43,0.86c0.12,0.24,0.23,0.49,0.34,0.74c0.09,0.2,0.18,0.4,0.27,0.59l6.91,15.31
				c0.09,0.2,0.18,0.41,0.27,0.61c0.1,0.22,0.19,0.43,0.29,0.64c0.11,0.22,0.21,0.44,0.33,0.66c0.36,0.66,0.69,1.19,1.38,1.56
				c0.41,0.22,0.87,0.34,1.33,0.34h0.64c1.19,0,2.16-0.97,2.16-2.16V96.07h4.35v24.42c0,2.99-2.43,5.41-5.41,5.41h-1.74
				c-1.19,0-2.36-0.3-3.4-0.86c-1.46-0.79-2.36-1.87-3.14-3.32c-0.15-0.28-0.3-0.57-0.43-0.86c-0.12-0.24-0.23-0.49-0.34-0.74
				c-0.09-0.2-0.18-0.4-0.27-0.6l-6.91-15.31c-0.09-0.2-0.18-0.41-0.27-0.61c-0.1-0.22-0.19-0.43-0.29-0.64
				c-0.1-0.22-0.21-0.44-0.33-0.66c-0.36-0.66-0.69-1.19-1.38-1.56c-0.41-0.22-0.87-0.34-1.33-0.34h-0.64
				c-1.19,0-2.16,0.97-2.16,2.16v23.32h-4.35V101.48z"/>
		</g>
		<g>
			<path class="st3" d="M185.78,41.05c-8.43-2.99-14.07-10.97-14.07-19.92C171.71,9.47,181.18,0,192.84,0h59.91v17.51h-59.91
				c-2,0-3.62,1.62-3.62,3.62c0,1.52,0.95,2.88,2.37,3.4l51.15,13.71l0.61,0.22c8.43,2.99,14.07,10.97,14.07,19.92
				c0,11.66-9.47,21.13-21.13,21.13H176.4V61.98h59.91c2,0,3.62-1.62,3.62-3.62c0-1.52-0.95-2.88-2.37-3.4L186.4,41.27L185.78,41.05
				z"/>
			<path class="st3" d="M285.4,0l21.36,25.96L328.11,0h22.68l-35.28,42.88v36.6H298v-36.6L262.72,0H285.4z"/>
			<path class="st3" d="M372.74,0h4.22c3.46,0,6.87,0.86,9.92,2.51c4.17,2.25,6.82,5.36,9.04,9.48c0.4,0.74,0.77,1.49,1.13,2.24
				c0.29,0.62,0.58,1.24,0.85,1.87c0.21,0.48,0.42,0.96,0.64,1.43l16.79,37.23c0.23,0.5,0.45,1,0.67,1.5
				c0.22,0.5,0.45,0.99,0.68,1.49c0.23,0.48,0.47,0.96,0.72,1.43c0.51,0.94,0.98,1.86,1.96,2.39c0.49,0.26,1.03,0.4,1.59,0.4h1.55
				c0.98,0,1.79-0.81,1.79-1.79V0h17.51v62.85c0,9.18-7.45,16.63-16.63,16.63h-4.22c-3.46,0-6.87-0.86-9.92-2.51
				c-4.17-2.25-6.82-5.36-9.04-9.48c-0.4-0.74-0.77-1.48-1.13-2.24c-0.29-0.62-0.58-1.24-0.85-1.87c-0.21-0.48-0.42-0.96-0.64-1.43
				l-16.79-37.23c-0.23-0.5-0.45-1-0.67-1.5c-0.22-0.5-0.45-0.99-0.68-1.49c-0.23-0.48-0.47-0.96-0.72-1.43
				c-0.51-0.94-0.98-1.86-1.96-2.39c-0.49-0.26-1.03-0.4-1.59-0.4h-1.55c-0.98,0-1.79,0.81-1.79,1.79v60.18h-17.51V16.63
				C356.11,7.45,363.56,0,372.74,0z"/>
			<path class="st3" d="M484.97,1.8c2.04-1.34,4.33-1.8,6.74-1.8s4.7,0.46,6.74,1.8c3.96,2.6,6.38,8.57,8.28,12.74l29.58,64.95
				h-19.24l-7.06-15.49h-36.59l-7.06,15.49h-19.24l29.58-64.95C478.59,10.37,481.01,4.4,484.97,1.8z M491.71,23.82l-10.32,22.66
				h20.64L491.71,23.82z"/>
			<path class="st3" d="M541.56,35.23V16.63c0-9.19,7.46-16.59,16.63-16.63h0.14h40.15c2.76,0,5.49,0.47,8.08,1.39
				c9.63,3.43,15.7,12.61,16.16,22.86c0.65,14.38-5.73,22.44-14.42,26.32L620.75,74c0.23,0.5,0.45,1,0.67,1.5
				c0.22,0.5,0.45,0.99,0.68,1.49c0.16,0.34,0.33,0.68,0.5,1.02l0.76,1.47h-19.35l-13.98-26.82h-30.83v26.82h-17.51V35.23H541.56z
				 M605.21,24.19c-0.08-3.68-3.06-6.67-6.74-6.67h-38.29c-0.41,0-0.79,0.23-0.98,0.59v17.05h39.27
				C606.41,35.15,605.27,27.2,605.21,24.19z"/>
			<path class="st3" d="M628.73,17.51V0h85.72v17.51h-34.1v61.97h-17.51V17.51H628.73z"/>
		</g>
	</g>
</g>
</svg>
