<?xml version="1.0" encoding="utf-8"?>
<!-- Generator: Adobe Illustrator 23.1.0, SVG Export Plug-In . SVG Version: 6.00 Build 0)  -->
<svg version="1.1" id="Layer_1" xmlns="http://www.w3.org/2000/svg" xmlns:xlink="http://www.w3.org/1999/xlink" x="0px" y="0px"
	 viewBox="0 0 1080 1080" style="enable-background:new 0 0 1080 1080;" xml:space="preserve">
<style type="text/css">
	.st0{fill:none;}
	.st1{fill:#FFFFFF;}
	.st2{fill:#E82127;}
	.st3{fill:#001F4C;}
</style>
<g>
	<g>
		<path class="st2" d="M383.79,477.78c0.17,0.19,0.33,0.37,0.5,0.56c9.2,10.46,18.39,20.95,27.59,31.44
			c10.39,11.86,27.89,12.2,38.73,0.7c60.72-64.41,143.96-160.22,197.01-217.15c-3.69,0.05-84.55,0.01-135.81,0h-0.47
			c-0.76,0-1.52,0.04-2.27,0.09c-0.1,0.01-0.19,0.01-0.29,0.03c-6.67,0.56-12.79,3.04-17.79,6.93c0,0.01-0.01,0.01-0.03,0.03
			c-0.11,0.1-0.25,0.2-0.37,0.31c-0.33,0.27-0.65,0.54-0.99,0.83c-0.01,0.01-0.03,0.01-0.04,0.04c-0.06,0.05-0.14,0.1-0.2,0.17
			c-0.03,0.03-0.05,0.04-0.08,0.06c-0.29,0.27-0.59,0.52-0.87,0.8c-21.67,20.38-68.01,58.29-101.92,87.57
			c-0.03,0.01-0.04,0.03-0.06,0.05c-0.76,0.65-1.5,1.29-2.24,1.94c-0.04,0.03-0.06,0.05-0.1,0.09
			c-11.63,10.62-18.93,25.91-18.93,42.9c0,12.58,4.01,24.24,10.81,33.75C378.57,471.85,381.19,474.82,383.79,477.78z"/>
		<path class="st2" d="M689.29,598.3h-64.91c11.19-11.27,22.34-22.59,33.49-33.9c0.01,0,0.01-0.01,0.02-0.01
			c2.32-2.35,4.63-4.71,6.94-7.06l0.06-0.06c8.52-10.25,13.64-23.39,13.64-37.73c0-13.28-4.39-25.53-11.81-35.42
			c-2.98-3.16-5.99-6.35-9-9.57c-17.54-18.65-35.5-38.01-51.74-54.48c-0.01-0.02-0.03-0.04-0.05-0.06c-2.53-2.56-6.65-2.47-9.17,0.1
			C540.94,477.43,488.5,540.12,433.28,598.3h-53.41c-15.03,0-27.21,11.87-27.21,26.52v0H716.5v0
			C716.5,610.17,704.32,598.3,689.29,598.3z"/>
		<path class="st2" d="M714.82,293.33c0,0-0.01,0-0.03,0H656.9l-1.18,62.39l53.65-32.77c4.2-2.56,6.95-6.93,7.46-11.82l1.39-13.21
			c0,0,0.08-0.6,0.09-0.8c0-0.01,0-0.01,0-0.03C718.3,295.12,716.75,293.5,714.82,293.33z"/>
	</g>
	<g>
		<g>
			<path class="st3" d="M273.59,786.67h-4.96l15.21-27.59c0.78-1.42,2.18-2.25,3.81-2.25c1.63,0,3.02,0.82,3.81,2.25l15.21,27.59
				h-4.96l-3.51-6.37h-21.08L273.59,786.67z M279.5,775.95h16.28l-8.14-14.77L279.5,775.95z"/>
			<path class="st3" d="M363.16,756.83v18.84c0,6.05-4.95,10.99-10.99,10.99H340.8c-6.04,0-10.99-4.95-10.99-10.99v-18.84h4.35
				v18.84c0,3.66,2.99,6.65,6.65,6.65h11.37c3.66,0,6.65-2.99,6.65-6.65v-18.84H363.16z"/>
			<path class="st3" d="M402.31,761.18h-14.02v-4.35h32.4v4.35h-14.02v25.49h-4.35V761.18z"/>
			<path class="st3" d="M455.83,756.83h11.37c6.04,0,10.99,4.95,10.99,10.99v7.85c0,6.05-4.95,10.99-10.99,10.99h-11.37
				c-6.04,0-10.99-4.95-10.99-10.99v-7.85C444.83,761.78,449.78,756.83,455.83,756.83z M467.2,761.18h-11.37
				c-3.66,0-6.65,2.99-6.65,6.65v7.85c0,3.66,2.99,6.65,6.65,6.65h11.37c3.66,0,6.65-2.99,6.65-6.65v-7.85
				C473.85,764.17,470.86,761.18,467.2,761.18z"/>
			<path class="st3" d="M536.79,759.47c1.07-1.55,2.79-2.52,4.67-2.63c0.11-0.01,0.23-0.01,0.34-0.01c0.46,0,0.91,0.05,1.36,0.15
				c2.65,0.6,4.58,2.89,4.72,5.6l0,0.03l0,0.03c0.02,0.19,0.03,0.38,0.03,0.57v23.32h-4.35v-23.32c0-0.1-0.01-0.19-0.02-0.29
				c0-0.81-0.56-1.52-1.36-1.7c-0.13-0.03-0.26-0.04-0.39-0.04c-0.52,0-1.01,0.23-1.34,0.63l-0.12,0.15l-8.85,19.44
				c-0.62,1.37-1.6,3.8-2.89,4.64c-0.6,0.39-1.29,0.51-1.99,0.51c-0.7,0-1.39-0.11-1.99-0.51c-1.29-0.84-2.27-3.27-2.89-4.64
				l-8.85-19.44l-0.12-0.15c-0.33-0.4-0.82-0.63-1.34-0.63c-0.13,0-0.26,0.01-0.39,0.04c-0.79,0.18-1.35,0.89-1.35,1.7
				c-0.01,0.1-0.02,0.19-0.02,0.29v23.32h-4.35v-23.32c0-0.19,0.01-0.38,0.03-0.57l0-0.03l0-0.03c0.15-2.71,2.08-5,4.73-5.6
				c0.44-0.1,0.9-0.15,1.36-0.15c0.11,0,0.23,0,0.34,0.01c1.88,0.1,3.6,1.07,4.67,2.63l0.27,0.39l9.91,21.76l9.91-21.76
				L536.79,759.47z"/>
			<path class="st3" d="M577.01,786.67h-4.96l15.21-27.59c0.78-1.42,2.18-2.25,3.81-2.25c1.63,0,3.02,0.82,3.81,2.25l15.21,27.59
				h-4.96l-3.51-6.37h-21.08L577.01,786.67z M582.92,775.95h16.28l-8.14-14.77L582.92,775.95z"/>
			<path class="st3" d="M641.28,761.18h-14.02v-4.35h32.4v4.35h-14.02v25.49h-4.35V761.18z"/>
			<path class="st3" d="M688.14,756.83v29.83h-4.35v-29.83H688.14z"/>
			<path class="st3" d="M726.22,756.83h11.37c6.04,0,10.99,4.95,10.99,10.99v7.85c0,6.05-4.95,10.99-10.99,10.99h-11.37
				c-6.04,0-10.99-4.95-10.99-10.99v-7.85C715.23,761.78,720.18,756.83,726.22,756.83z M737.59,761.18h-11.37
				c-3.66,0-6.65,2.99-6.65,6.65v7.85c0,3.66,2.99,6.65,6.65,6.65h11.37c3.66,0,6.65-2.99,6.65-6.65v-7.85
				C744.24,764.17,741.25,761.18,737.59,761.18z"/>
			<path class="st3" d="M774.71,762.25c0-2.99,2.43-5.41,5.41-5.41h1.74c1.19,0,2.36,0.3,3.4,0.86c1.46,0.79,2.36,1.87,3.14,3.32
				c0.15,0.28,0.29,0.57,0.43,0.86c0.12,0.24,0.23,0.49,0.34,0.74c0.09,0.2,0.18,0.4,0.27,0.59l6.91,15.31
				c0.09,0.2,0.18,0.41,0.27,0.61c0.1,0.22,0.19,0.43,0.29,0.64c0.11,0.22,0.21,0.44,0.33,0.66c0.36,0.66,0.69,1.19,1.38,1.56
				c0.41,0.22,0.87,0.34,1.33,0.34h0.64c1.19,0,2.16-0.97,2.16-2.16v-23.32h4.35v24.42c0,2.99-2.43,5.41-5.41,5.41h-1.74
				c-1.19,0-2.36-0.3-3.4-0.86c-1.46-0.79-2.36-1.87-3.14-3.32c-0.15-0.28-0.3-0.57-0.43-0.86c-0.12-0.24-0.23-0.49-0.34-0.74
				c-0.09-0.2-0.18-0.4-0.27-0.6l-6.91-15.31c-0.09-0.2-0.18-0.41-0.27-0.61c-0.1-0.22-0.19-0.43-0.29-0.64
				c-0.1-0.22-0.21-0.44-0.33-0.66c-0.36-0.66-0.69-1.19-1.38-1.56c-0.41-0.22-0.87-0.34-1.33-0.34h-0.64
				c-1.19,0-2.16,0.97-2.16,2.16v23.32h-4.35V762.25z"/>
		</g>
		<g>
			<path class="st3" d="M282.7,701.82c-8.43-2.99-14.07-10.97-14.07-19.92c0-11.66,9.47-21.13,21.13-21.13h59.91v17.51h-59.91
				c-2,0-3.62,1.62-3.62,3.62c0,1.52,0.95,2.88,2.37,3.4L339.67,699l0.61,0.22c8.43,2.99,14.07,10.97,14.07,19.92
				c0,11.66-9.47,21.13-21.13,21.13h-59.91v-17.51h59.91c2,0,3.62-1.62,3.62-3.62c0-1.52-0.95-2.88-2.37-3.4l-51.15-13.71
				L282.7,701.82z"/>
			<path class="st3" d="M382.32,660.77l21.36,25.96l21.36-25.96h22.68l-35.28,42.88v36.6h-17.51v-36.6l-35.28-42.88H382.32z"/>
			<path class="st3" d="M469.66,660.77h4.22c3.46,0,6.87,0.86,9.92,2.51c4.17,2.25,6.82,5.36,9.04,9.48
				c0.4,0.74,0.77,1.49,1.13,2.24c0.29,0.62,0.58,1.24,0.85,1.87c0.21,0.48,0.42,0.96,0.64,1.43l16.79,37.23
				c0.23,0.5,0.45,1,0.67,1.5c0.22,0.5,0.45,0.99,0.68,1.49c0.23,0.48,0.47,0.96,0.72,1.43c0.51,0.94,0.98,1.86,1.96,2.39
				c0.49,0.26,1.03,0.4,1.59,0.4h1.55c0.98,0,1.79-0.81,1.79-1.79v-60.18h17.51v62.85c0,9.18-7.45,16.63-16.63,16.63h-4.22
				c-3.46,0-6.87-0.86-9.92-2.51c-4.17-2.25-6.82-5.36-9.04-9.48c-0.4-0.74-0.77-1.48-1.13-2.24c-0.29-0.62-0.58-1.24-0.85-1.87
				c-0.21-0.48-0.42-0.96-0.64-1.43l-16.79-37.23c-0.23-0.5-0.45-1-0.67-1.5c-0.22-0.5-0.45-0.99-0.68-1.49
				c-0.23-0.48-0.47-0.96-0.72-1.43c-0.51-0.94-0.98-1.86-1.96-2.39c-0.49-0.26-1.03-0.4-1.59-0.4h-1.55
				c-0.98,0-1.79,0.81-1.79,1.79v60.18h-17.51V677.4C453.03,668.22,460.48,660.77,469.66,660.77z"/>
			<path class="st3" d="M581.89,662.57c2.04-1.34,4.33-1.8,6.74-1.8c2.41,0,4.7,0.46,6.74,1.8c3.96,2.6,6.38,8.57,8.28,12.74
				l29.58,64.95h-19.24l-7.06-15.49h-36.59l-7.06,15.49h-19.24l29.58-64.95C575.51,671.13,577.93,665.17,581.89,662.57z
				 M588.63,684.59l-10.32,22.66h20.64L588.63,684.59z"/>
			<path class="st3" d="M638.49,696V677.4c0-9.19,7.46-16.59,16.63-16.63h0.14h40.15c2.76,0,5.49,0.47,8.08,1.39
				c9.63,3.43,15.7,12.61,16.16,22.86c0.65,14.38-5.73,22.44-14.42,26.32l12.45,23.43c0.23,0.5,0.45,1,0.67,1.5
				c0.22,0.5,0.45,0.99,0.68,1.49c0.16,0.34,0.33,0.68,0.5,1.02l0.76,1.47h-19.35l-13.98-26.82h-30.83v26.82h-17.51V696H638.49z
				 M702.13,684.95c-0.08-3.68-3.06-6.67-6.74-6.67h-38.29c-0.41,0-0.79,0.23-0.98,0.59v17.05h39.27
				C703.33,695.92,702.2,687.96,702.13,684.95z"/>
			<path class="st3" d="M725.65,678.28v-17.51h85.72v17.51h-34.1v61.97h-17.51v-61.97H725.65z"/>
		</g>
	</g>
</g>
<rect class="st0" width="1080" height="1080"/>
</svg>
